<?xml version="1.0" encoding="UTF-8"?>
<svg xmlns="http://www.w3.org/2000/svg" version="1.1" viewBox="0 0 800 800">
  <!-- Generator: Adobe Illustrator 28.6.0, SVG Export Plug-In . SVG Version: 1.2.0 Build 709)  -->
  <g>
    <g id="Layer_1">
      <polygon points="113.9 121.6 113.9 593.4 149.2 533.1 149.2 160.4 638.1 160.4 638.1 536.1 671.2 593.4 671.2 121.6 113.9 121.6" fill="#ec1c24" fill-rule="evenodd"/>
      <path d="M638,593.4" fill="#ec1c24" fill-rule="evenodd"/>
      <rect x="683.8" y="352.3" width="31.5" height="68.5" rx="3" ry="3" fill="#231f20"/>
      <g>
        <circle cx="699.5" cy="373.7" r="9.9" fill="#fff"/>
        <circle cx="699.5" cy="399.5" r="9.9" fill="#fff"/>
      </g>
      <path d="M84.7,677l148.5-233.1,36.5,53-15.7,19.2c-6.3-8.9-12.6-17.8-18.9-26.7-39.9,62.5-79.7,125-119.6,187.5h-30.8Z" fill="#231f20" fill-rule="evenodd"/>
      <path d="M703.4,677l-148.5-233.1-36.5,53,15.7,19.2c6.3-8.9,12.6-17.8,18.9-26.7,39.9,62.5,79.7,125,119.6,187.5h30.8Z" fill="#231f20" fill-rule="evenodd"/>
      <path d="M464.4,584.3c-22.2-34.5-44.4-69-66.6-103.5l-108.6,171.4h277.5l-169.3-265.6-189.5,291.8h-30.9l220.9-339.6,215.8,339.6H244c51.1-81.1,102.3-162.1,153.4-243.2,34.4,54.4,68.8,108.7,103.2,163.1-12.1-4.6-24.1-9.3-36.2-13.9Z" fill="#ec1c24"/>
    </g>
  </g>
</svg>