<?xml version="1.0" encoding="UTF-8"?>
<svg xmlns="http://www.w3.org/2000/svg" version="1.1" viewBox="0 0 800 800">
  <!-- Generator: Adobe Illustrator 28.6.0, SVG Export Plug-In . SVG Version: 1.2.0 Build 709)  -->
  <g>
    <g id="Layer_1">
      <path d="M421.9,496.3l-14.5-50.7-14.5,50.7h-14.6l23.5-73.3h11.2l23.4,73.3h-14.6Z" fill="#ec1c24"/>
      <path d="M477.1,435.1v61.2h-14v-61.2h-18.7v-12.1h51.4v12.1h-18.7Z" fill="#231f20"/>
      <path d="M132,453.3h27.8v12.1h-27.8v18.8h32.6v12.1h-46.5v-73.3h46.5v12.1h-32.6v18.2Z" fill="#231f20"/>
      <path d="M199.2,423v61.2h32.1v12.1h-46v-73.3h13.9Z" fill="#231f20"/>
      <path d="M264.7,453.3h27.8v12.1h-27.8v18.8h32.6v12.1h-46.5v-73.3h46.5v12.1h-32.6v18.2Z" fill="#231f20"/>
      <path d="M238.3,598.2c-19.8,0-21.9-11-21.9-15.7,0-12.6,12.1-25.4,36.1-38.1,9.4-5,18.8-9,25.4-11.5-3.7-2-7.1-3.9-10.3-5.6-19.4-10.3-32.2-17.2-32.2-30.6s10.8-23.6,28.9-33.4c19.8-10.7,45.7-16.6,72.7-16.6s25.7,1.4,32.9,4.2c9.2,3.5,10.5,8.8,10.5,11.6,0,4.9-3.2,9.2-5,11.4-1.5,1.7-5.4,5.6-9.6,5.6s-3.5-.8-4.6-2.3h0c0,0,0-.2,0-.2-.7-1-1-2.1-1-3.3,0-2.8,2-4.8,3.9-6.8.9-.9,2.2-2.2,2.8-3.3-3.1-1.5-12.6-3.9-30-3.9-32.1,0-53.7,8.4-66.2,15.4-14.9,8.3-21.6,17.6-21.6,21.5,0,6.2,11.3,12,23.2,18.2,6.9,3.5,14.6,7.5,21.8,12.3,3.3-.9,9.7-2.4,14.4-2.4h.9c3,.2,12.2.6,12.2,9.2s-2.8,6.9-6.4,6.9-4.3-1.1-5.1-2.9c-.5,0-1.2,0-2.2,0s-.9,0-1.3,0c2.2,3.3,4.3,7.7,4.3,12.9,0,10-8.6,21.9-23.1,31.7-14.9,10-32.8,15.8-49.2,15.8ZM229.9,582.1c.8,1.2,5.4,2.8,8.7,2.8,13,0,27.7-4.6,40.1-12.5,10.7-6.8,17.9-15.3,17.9-21.1s-3.1-7.7-5-9.5c-5.1,1.8-18,6.5-30.7,12.9-19.8,10-30.8,19.7-31,27.3Z" fill="#fff"/>
      <path d="M315.5,553.1c-4.1,0-7-3-7-7.3s2.3-6.9,6.8-11.3c3-2.9,7.3-6.4,10.8-6.4s4.2,1.5,4.6,1.8c.6.4,3.7,1.8,8,1.8s3.3-.8,4.6-1.4c1.3-.6,2.3-1,3.5-1,2.9,0,6.3,1.7,6.3,6.3s-1.7,4.2-5.9,6.2c-2.2,1-5.5,2.2-8.9,2.2s-6.3-.5-8.2-1c-2.2,3.1-6.2,7.2-9,8.6-1.7,1-3.8,1.5-5.7,1.5Z" fill="#fff"/>
      <path d="M353.4,554.7c-8,0-12.8-6.2-12.8-12.3,0-10.3,9.1-26.6,17.6-38.5,5.4-7.6,19.1-25.2,29.1-25.2s8.3,4.9,8.3,9.3c0,6.9-6.5,17.2-19.2,30.7-8.5,9-17.8,17.2-22.4,20.4-.1.5-.2,1.2-.2,2,0,.1,0,.3.2.5,4.9-.3,14.3-7.1,17.9-9.7,1.6-1.2,2.4-1.7,3.1-2.1l1-.6h1.1c2.1,0,5.7,1.4,5.7,6.7s0,3.8-11.5,11.3c-7.5,4.9-13.5,7.4-17.8,7.4Z" fill="#fff"/>
      <path d="M378.7,551.4c-7.8,0-10.6-4.6-10.6-8.5s1.9-7.1,3.5-9.4c3.8-5.7,6.1-5.7,7.1-5.7,4.7,0,6.9,3.1,6.9,5.9s-.1,1.1-.3,1.8c2.3-1.6,4.7-3.6,6.6-5.1l1.1-.9,2.3-.7h.6c3.4,0,6.3,2.9,6.3,6.4s0,1-.2,1.4c5.1-.8,10.5-4,13.2-5.6,2.1-1.2,3-1.8,4.4-1.8,3.2,0,5.7,2.6,5.7,5.9s0,3.7-9.7,9c-4.3,2.4-10.7,5.2-16.6,5.2s-6.4-1.1-8.1-2.8c-3.9,2.5-8.6,4.6-12.1,4.8h-.1s-.1,0-.1,0Z" fill="#fff"/>
      <path d="M426.6,554.7c-8,0-12.8-6.2-12.8-12.3s1.5-11,5.2-17.9c-2.4.3-4.5.5-6.6.5s-6.4-.3-6.4-6.9,3.1-5.6,7.7-7.9c1.4-.7,6-2.8,8.3-2.8h.7l.7.2c1.8.6,3.1,1.8,3.8,3.3.2,0,.3,0,.5,0,18.6-28.5,27.3-32.2,32.9-32.2s8.3,4.9,8.3,9.3-6.6,15.8-12.1,22.8c2.7,1.1,4.4,3.4,4.4,6.3,0,4.4-4.7,7.4-9.2,7.4s-3-.6-4.1-1.9c-.2,0-.6,0-1,0h-.7c-4.5,4.2-14.4,13.2-18.9,16.5-.1.5-.2,1.2-.2,2,0,.1,0,.3.2.5,4.9-.3,14.3-7.1,17.9-9.7,1.6-1.2,2.4-1.7,3.1-2.1l1-.6h1.1c2.1,0,5.7,1.4,5.7,6.7s0,3.8-11.5,11.3c-7.5,4.9-13.5,7.4-17.8,7.4ZM456.4,488.6" fill="#fff"/>
      <path d="M452.1,551c-6.1,0-9.7-4.9-9.7-9.6s1.5-7.6,4.3-10.7c1.5-2.1,4.8-4.9,8.6-4.9s1.5.1,2.2.3c-.6-1.1-1-2.2-1-3.4,0-3.3,2.6-5.7,6-5.7s7.1,2.7,7.1,7.2-3.1,5.8-6,5.8-1.4-.2-2.1-.4c.4.9.7,1.9.7,3,0,2.1-1.1,3.7-2.5,5,5.9-1.9,13.1-5.5,16.6-7.6l1.1-.6h1.2c2.9,0,5.2,2.4,5.2,5.4s-1,4.9-2.8,6c-5.8,4-18.6,10.3-28.7,10.3Z" fill="#fff"/>
      <path d="M470.5,553.1c-4.1,0-7-3-7-7.3s2.3-6.9,6.8-11.3c3-2.9,7.3-6.4,10.8-6.4s4.2,1.5,4.6,1.8c.6.4,3.7,1.8,8,1.8s3.3-.8,4.6-1.4c1.3-.6,2.3-1,3.5-1,2.9,0,6.3,1.7,6.3,6.3s-1.7,4.2-5.9,6.2c-2.2,1-5.5,2.2-8.9,2.2s-6.3-.5-8.2-1c-2.2,3.1-6.2,7.2-9,8.6-1.7,1-3.8,1.5-5.7,1.5Z" fill="#fff"/>
      <path d="M498,551.9c-4.1,0-7.2-3.1-7.2-7.2s2.3-7,3.7-9.2c3.8-6,6.3-6.8,8.2-6.8s4.6,1.4,5.4,3.5c4-2.4,7.5-4,10.3-4s6.7,2.6,6.7,6.3-.1,2-.3,3c5.3-1.9,13-5.7,14.8-7.1l2.7-2.7,3.1,2.5c1.4,1.1,3,2.9,3,5.3v1.8l-1.2,1.3c-5.9,6.2-22.9,12.5-27.9,12.5s-7.7-3.2-8.2-6.5c-1.1.8-2.3,1.5-3.1,2.1-5.6,3.9-7.6,5.2-9.9,5.2Z" fill="#fff"/>
      <path d="M538.6,554.9c-4.6,0-9.4-3.2-9.4-8.6s3.9-8.2,8.8-9.5c-.2-1.1-.3-2.1-.3-3.1,0-8.7,7.2-11.9,12.1-11.9s7.6,3.6,7.6,7-1.2,4.6-2.6,6c3.5-.8,6.8-2.2,12.1-5l1-.5h1.1c2.9,0,6.1,2.4,6.1,5.9s-2.3,4.6-3.1,5.2c0,0-.2.1-.3.2-5.1,4.3-13.7,6.6-20.7,7.3-2.1,4.5-6.4,7.1-12.3,7.1Z" fill="#fff"/>
      <path d="M307.6,533.4c-4.3,0-9.6,1.8-9.6,1.8,0,0,8.1,6.5,8.1,15.6,0,17.3-33.9,43.1-67.9,43.1s-17.5-3.8-17.5-11.3c0-26.2,67.5-48.9,67.5-48.9-29.2-16.9-48.6-22.9-48.6-37s38.5-45.6,97.2-45.6,39,6.5,39,11.3-7.1,12.6-10.2,12.6-.8-.2-1.1-.5c-.2-.3-.3-.5-.3-.8,0-2.4,7.1-6.1,7.1-11v-.3c-.3-3.3-12.1-7.1-34.8-7.1-59.4,0-92.2,28.7-92.2,41.3s27.2,20.4,48.6,35.3c0,0,9.5-2.8,15.2-2.8h.7c6.5.3,8.1,2,8.1,4.8s-.8,2.5-2,2.5c-3.2,0,1.8-3-7.3-3ZM301,551.4c0-8.6-8.4-14.4-8.5-14.4,0,0-67,21.9-67,45.3s9.1,7.1,13.1,7.1c30.1,0,62.4-22.5,62.4-37.9Z" fill="#231f20"/>
      <path d="M312.9,545.8c0-3.9,10.2-13.3,13.2-13.3s1.3.4,1.8.8c.8.8,5.2,2.8,10.7,2.8s7.2-2.4,8.1-2.4c1.8,0,1.9,1.1,1.9,1.9s-5.6,4-10.4,4-9.4-1.7-9.7-1.7c-.7,0-.9.4-1.3,1.4-1.2,2.4-5.9,7.3-8.1,8.4-1.2.7-2.5,1-3.6,1-2.2,0-2.6-1.7-2.6-2.9ZM322.7,539h0c-.3,0-1.1.6-2.2,1.7-1.8,1.8-3.1,3.4-3.1,3.7,2.7-1.6,5.4-4.8,5.4-5.4Z" fill="#231f20"/>
      <path d="M378.3,535.9c0,1.3-17.1,14.4-24.9,14.4s-8.4-4.4-8.4-7.9c0-16.8,30.6-59.3,42.3-59.3s3.9,2.6,3.9,5c0,13.1-34.4,44.6-41,48.3,0,0-.9,1.8-.9,4.9s1.3,4.9,4.3,4.9c7.8,0,21.2-11.1,23.4-12.3,1,0,1.3,1,1.3,2.3ZM351.8,530.4c3.2-.8,35.7-32.4,35.7-41s-.7-2.3-1.6-2.3c-7.4,0-29.3,30.8-34.1,43.3Z" fill="#231f20"/>
      <path d="M372.5,542.9c0-4.4,5.2-10.7,6.2-10.7,1.5,0,2.5.5,2.5,1.5s-.8,2.3-1.5,2.3-2.8,3.3-2.8,5.4.5,1.7,2,1.7c4.5,0,10.6-5,16.1-9.6l.8-.3c.9,0,1.9.8,1.9,2s-1.3,2.7-1.3,4,.8,2,3,2c9.3,0,19.1-7.6,20.1-7.6s1.3,1,1.3,1.5c0,.8-12.6,9.8-21.9,9.8s-6-2.5-6-4.2l.3-1.6c-3.3,3.5-10.6,7.6-14.6,7.8-4.3,0-6.2-1.8-6.2-4.1Z" fill="#231f20"/>
      <path d="M418.2,542.4c0-6,2-12.3,9.1-23.3-6.3.5-10.8,1.4-14.9,1.4s-2-1.5-2-2.5c0-2,10.1-6.3,11.6-6.3.8.3,1.3.8,1.3,1.5,0,1.8-2.8,2.5-4.3,3.3,4.8-.8,7.2-1.1,11.2-1.6,10.1-15.6,22.3-31.9,30.3-31.9s3.9,2.6,3.9,5c0,6-12.9,23.3-16.6,26.3h1.6c4.5,0,7.3.3,7.3,2.8s-2.8,3-4.8,3,0-1.9-5.4-1.9l-2.4.3s-17.5,16-20.7,17.9c0,0-.9,1.8-.9,4.9s1.3,4.9,4.3,4.9c7.8,0,21.2-11.1,23.4-12.3,1,0,1.3,1,1.3,2.3s-17.1,14.4-24.9,14.4-8.4-4.4-8.4-7.9ZM439.1,518.5l-7.1.5-7,11.3c1.4-.3,14.1-11.8,14.1-11.8ZM460.7,489.3c0-1.3-.7-2.3-1.6-2.3-3.9,0-14.5,12.9-24.1,27.6l8.1-.5c4.5-3.7,17.5-22.2,17.5-24.8Z" fill="#231f20"/>
      <path d="M446.8,541.4c0-3.1,1.2-5.7,3.4-7.9.8-1.3,2.9-3.3,5.2-3.3s2.4.6,2.4,2.4-3.8,3.4-5.5,4.4c0,0-1.3.9-1.3,4.4s.8,1.8,2.6,1.8c7.2,0,20.5-6.7,25-9.5.5,0,.8.5.8,1,0,1-.3,2-.8,2.3-5,3.5-17.1,9.7-26.4,9.7s-5.3-3.4-5.3-5.2ZM460.9,522.7c0-.9.8-1.3,1.6-1.3s2.7.9,2.7,2.8-1.1,1.4-1.6,1.4c-.9,0-2.7-1.6-2.7-2.9Z" fill="#231f20"/>
      <path d="M467.9,545.8c0-3.9,10.2-13.3,13.2-13.3s1.3.4,1.8.8c.8.8,5.2,2.8,10.7,2.8s7.2-2.4,8.1-2.4c1.8,0,1.9,1.1,1.9,1.9s-5.6,4-10.4,4-9.4-1.7-9.7-1.7c-.7,0-.9.4-1.3,1.4-1.2,2.4-5.9,7.3-8.1,8.4-1.2.7-2.5,1-3.6,1-2.2,0-2.6-1.7-2.6-2.9ZM477.7,539h0c-.3,0-1.1.6-2.2,1.7-1.8,1.8-3.1,3.4-3.1,3.7,2.7-1.6,5.4-4.8,5.4-5.4Z" fill="#231f20"/>
      <path d="M495.2,544.7c0-2.8,5.5-11.6,7.6-11.6s1.5.3,1.5,1.5-4.1,5.2-4.1,6.7.3.6.8.6c1,0,12.9-9.3,17.5-9.3s2.3.8,2.3,1.9c0,2.3-1.4,6-1.4,7.6s.2.9,1,.9c5.3,0,20.6-7.6,22.3-9.4,0,0,1.3,1.1,1.3,1.8-5,5.2-20.8,11.2-24.8,11.2s-3.9-2-3.9-3.4c0-2.5,1.1-5.3,1.1-6.2l-.2-.2c-3.5,0-15.9,10.6-18.2,10.6s-2.8-1-2.8-2.8Z" fill="#231f20"/>
      <path d="M533.5,546.3c0-5.6,9.7-5.9,9.7-5.9,0-.8-1.2-4.6-1.2-6.7,0-6.7,6.1-7.5,7.7-7.5,2.3,0,3.2,1.8,3.2,2.6,0,1.8-1,2.9-3.4,4.4-1.5,1.1-2.6,1.7-2.6,1.7-.6,1.5.7,3.4.7,5.3,8-.6,12-1.6,21.2-6.5.7,0,1.7.6,1.7,1.5s-.9,1.3-1.8,1.9c-4.6,3.9-13.8,6.2-21.2,6.6-.6,2.9-2.4,6.8-9.1,6.8s-5-1.4-5-4.2ZM543.2,543.8c-2.7,0-5.2.8-5.2,1.6s.3,1.2,1.3,1.2c2.3,0,3.9-1.3,3.9-2.8Z" fill="#231f20"/>
      <path d="M326.6,423l14.5,50.7,14.5-50.7h14.6l-23.5,73.3h-11.2l-23.4-73.3h14.6Z" fill="#ec1c24"/>
      <path d="M527.9,423v73.3h-13.9v-73.3h13.9Z" fill="#231f20"/>
      <path d="M606.5,496.3h-13.9l-27-45.8v45.8h-13.9v-73.3h13.9l27,45.9v-45.9h13.9v73.3Z" fill="#231f20"/>
      <path d="M628.7,451.2c0-19.5,9-29.2,26.9-29.2s14.4,2.1,19.1,6.3c4.7,4.2,7.1,10,7.1,17.5v.7h-13.9v-.7c0-3.3-1.1-6.1-3.2-8.3-2.2-2.2-5.2-3.3-9.2-3.3s-7.7,1.4-9.7,4.1-3,7.3-3,13.6v15.8c0,6,1.1,10.4,3.2,13,2.2,2.7,5.5,4,10,4s7.3-1.1,9.3-3.3c1.9-2.2,2.9-5.5,2.9-10v-3.5h-13v-11.5h26.6v12.5c0,18.8-8.8,28.2-26.5,28.2s-26.7-9.7-26.7-29.2v-16.8Z" fill="#231f20"/>
      <polygon points="251.6 109.5 251.6 348 269.5 317.5 269.5 129.1 516.6 129.1 516.6 319 533.4 348 533.4 109.5 251.6 109.5" fill="#ec1c24" fill-rule="evenodd"/>
      <path d="M516.6,348" fill="#ec1c24" fill-rule="evenodd"/>
      <rect x="539.7" y="226.1" width="15.9" height="34.6" rx="1.5" ry="1.5" fill="#231f20"/>
      <g>
        <circle cx="547.7" cy="236.9" r="5" fill="#fff"/>
        <circle cx="547.7" cy="250" r="5" fill="#fff"/>
      </g>
      <path d="M236.9,390.3l75.1-117.9,18.5,26.8-7.9,9.7c-3.2-4.5-6.4-9-9.6-13.5-20.2,31.6-40.3,63.2-60.5,94.8h-15.6Z" fill="#231f20" fill-rule="evenodd"/>
      <path d="M549.6,390.3l-75.1-117.9-18.5,26.8,7.9,9.7c3.2-4.5,6.4-9,9.6-13.5,20.2,31.6,40.3,63.2,60.5,94.8h15.6Z" fill="#231f20" fill-rule="evenodd"/>
      <path d="M428.8,343.4c-11.2-17.4-22.4-34.9-33.7-52.3l-54.9,86.7h140.3l-85.6-134.3-95.8,147.5h-15.6l111.7-171.7,109.1,171.7h-186.8c25.9-41,51.7-82,77.6-123,17.4,27.5,34.8,55,52.2,82.4-6.1-2.3-12.2-4.7-18.3-7Z" fill="#ec1c24"/>
      <path d="M136.6,649h9.2c2.4,0,4.1.4,5.1,1.3,1.1.9,1.6,2.3,1.6,4.2s-.2,2-.6,2.8c-.4.9-1,1.5-1.7,2v.2c1,.2,1.8.8,2.4,1.7.6.9.9,1.9.9,3,0,1.9-.6,3.4-1.7,4.4-1.1,1-2.8,1.5-4.9,1.5h-10.4v-21.2ZM142.5,668.3l-2.5-2.5h5.6c.7,0,1.2-.2,1.4-.5s.4-.9.4-1.7-.1-1.3-.4-1.6-.7-.5-1.4-.5h-3.7v-4.2h2.8c.7,0,1.1-.1,1.4-.4.2-.3.4-.8.4-1.6s-.1-1.3-.3-1.6c-.2-.3-.7-.4-1.4-.4h-4.8l2.5-2.5v17.4Z" fill="#ec1c24"/>
      <path d="M165.3,670.7c-1.8,0-3.3-.1-4.5-.4s-2.1-.7-2.8-1.3c-.7-.6-1.1-1.4-1.4-2.5-.3-1-.4-2.4-.4-4v-13.6h6v16.6h3.2c.8,0,1.4,0,1.9-.2.4-.1.7-.3.9-.5.2-.3.2-.6.2-1.1v-14.8h6v13.6c0,1.6-.1,2.9-.4,3.9-.3,1.1-.7,1.9-1.4,2.5s-1.6,1-2.8,1.3c-1.2.2-2.7.4-4.5.4Z" fill="#ec1c24"/>
      <path d="M178.1,649h6v21.2h-6v-21.2Z" fill="#ec1c24"/>
      <path d="M188.1,670.2v-21.2h6v16.3h6.7v4.9h-12.7Z" fill="#ec1c24"/>
      <path d="M210.6,653.9v16.3h-6v-16.3h-4.9v-4.9h15.9v4.9h-4.9Z" fill="#ec1c24"/>
      <path d="M224.3,659.6c0-2.1.2-3.9.5-5.4.3-1.4.8-2.6,1.6-3.4.7-.8,1.8-1.4,3-1.8,1.3-.4,2.8-.5,4.7-.5s3.4.2,4.7.5c1.3.4,2.3,1,3,1.8.7.8,1.3,2,1.6,3.4.3,1.4.5,3.2.5,5.4s-.2,3.9-.5,5.4c-.3,1.4-.8,2.6-1.6,3.4-.7.8-1.7,1.4-3,1.8-1.3.4-2.9.5-4.7.5s-3.4-.2-4.7-.5c-1.3-.4-2.3-1-3-1.8-.7-.8-1.3-2-1.6-3.4-.3-1.4-.5-3.2-.5-5.4ZM230.7,665.6h4c1,0,1.8-.1,2.2-.4.4-.3.6-.8.6-1.5v-10.1h-4.1c-1,0-1.7.1-2.1.4-.4.3-.6.8-.6,1.5v10.1Z" fill="#ec1c24"/>
      <path d="M247.3,670.2v-21.2h5.9l5.5,8.8c.3.5.5,1,.7,1.3.1.3.2.7.2,1h.2v-11.1h6v21.2h-5.9l-5.5-8.8c-.3-.5-.5-1-.7-1.3-.1-.3-.2-.7-.2-1h-.2v11.1h-6Z" fill="#ec1c24"/>
      <path d="M286.2,653.9v16.3h-6v-16.3h-4.9v-4.9h15.9v4.9h-4.9Z" fill="#ec1c24"/>
      <path d="M299.4,663.7v6.5h-6v-21.2h9.5c1.8,0,3.3.3,4.4.8,1.1.5,1.9,1.3,2.4,2.5.5,1.1.8,2.6.8,4.4s-.6,4.2-1.7,5.4c-1.1,1.1-2.9,1.7-5.4,1.7h-4ZM299.4,659.4h3.3c.6,0,1-.1,1.2-.3s.4-.6.4-1.1v-2.6c0-.5-.1-.9-.4-1.1s-.6-.3-1.2-.3h-3.3v5.4ZM306.5,659.8l5,10.4h-6.5l-3.6-7.7,5.1-2.8Z" fill="#ec1c24"/>
      <path d="M323,670.7c-1.8,0-3.3-.1-4.5-.4s-2.1-.7-2.8-1.3c-.7-.6-1.1-1.4-1.4-2.5-.3-1-.4-2.4-.4-4v-13.6h6v16.6h3.2c.8,0,1.4,0,1.9-.2.4-.1.7-.3.9-.5.2-.3.2-.6.2-1.1v-14.8h6v13.6c0,1.6-.1,2.9-.4,3.9-.3,1.1-.7,1.9-1.4,2.5s-1.6,1-2.8,1.3c-1.2.2-2.7.4-4.5.4Z" fill="#ec1c24"/>
      <path d="M335.6,664.7c1.1.3,2.2.6,3.4.7s2.3.3,3.4.3,1.1,0,1.6,0c.5,0,.9,0,1.5-.2v-2.9l-3.1-.3c-1.4-.1-2.5-.3-3.4-.6-.9-.3-1.7-.7-2.3-1.2-.6-.5-1-1.1-1.2-1.9-.2-.8-.4-1.7-.4-2.8,0-1.8.2-3.2.7-4.3.5-1.1,1.3-1.8,2.5-2.3,1.2-.5,2.7-.7,4.7-.7s2.6,0,3.9.2c1.3.2,2.6.4,3.8.7l-.7,4.8c-1.1-.2-2.1-.4-3-.5-.9-.1-1.8-.2-2.7-.2s-1.2,0-1.6,0-.8,0-1.3.1v2.9l2.8.2c1.8.2,3.3.5,4.4,1,1.1.5,1.9,1.2,2.4,2.2.5.9.8,2.1.8,3.6s-.3,3-.9,4c-.6,1-1.5,1.8-2.8,2.3-1.3.5-2.9.7-5,.7s-3,0-4.4-.3c-1.4-.2-2.7-.5-4-.8l.8-4.9Z" fill="#ec1c24"/>
      <path d="M364,653.9v16.3h-6v-16.3h-4.9v-4.9h15.9v4.9h-4.9Z" fill="#ec1c24"/>
      <path d="M370.4,667.2c0-1.2.2-2,.6-2.5.4-.5,1.3-.8,2.7-.8s2.2.3,2.7.8c.4.5.6,1.4.6,2.5s-.2,2-.6,2.5c-.4.5-1.3.7-2.7.7s-2.2-.2-2.7-.7c-.4-.5-.6-1.3-.6-2.5Z" fill="#ec1c24"/>
      <path d="M387.4,649h9c1.9,0,3.5.2,4.7.5,1.2.3,2.2.9,2.9,1.7.7.8,1.2,1.9,1.5,3.2.3,1.4.4,3.1.4,5.2s-.1,3.8-.4,5.2c-.3,1.4-.8,2.5-1.5,3.3-.7.8-1.7,1.3-2.9,1.7-1.2.3-2.8.5-4.7.5h-9v-21.2ZM393.4,653.7v11.8h3.6c1,0,1.7-.2,2.1-.5.4-.3.6-.9.6-1.7v-7.4c0-.8-.2-1.4-.6-1.7-.4-.3-1.1-.5-2.1-.5h-3.6Z" fill="#ec1c24"/>
      <path d="M415.3,661.8v3.5h8.3v4.9h-14.2v-21.2h14.3l-.7,4.9h-7.6v3.5h7v4.4h-7Z" fill="#ec1c24"/>
      <path d="M426.8,664.7c1.1.3,2.2.6,3.4.7s2.3.3,3.4.3,1.1,0,1.6,0c.5,0,.9,0,1.5-.2v-2.9l-3.1-.3c-1.4-.1-2.5-.3-3.4-.6-.9-.3-1.7-.7-2.3-1.2s-1-1.1-1.2-1.9c-.2-.8-.4-1.7-.4-2.8,0-1.8.2-3.2.7-4.3.5-1.1,1.3-1.8,2.5-2.3,1.2-.5,2.7-.7,4.7-.7s2.6,0,3.9.2c1.3.2,2.6.4,3.8.7l-.7,4.8c-1.1-.2-2.1-.4-3-.5s-1.8-.2-2.7-.2-1.2,0-1.6,0-.8,0-1.3.1v2.9l2.8.2c1.8.2,3.3.5,4.4,1,1.1.5,1.9,1.2,2.4,2.2.5.9.8,2.1.8,3.6s-.3,3-.9,4c-.6,1-1.5,1.8-2.8,2.3-1.3.5-2.9.7-5,.7s-3,0-4.4-.3c-1.4-.2-2.7-.5-4-.8l.8-4.9Z" fill="#ec1c24"/>
      <path d="M446,649h6v21.2h-6v-21.2Z" fill="#ec1c24"/>
      <path d="M463.8,670.7c-1.7,0-3.1-.2-4.2-.5s-2-.9-2.6-1.7c-.6-.8-1.1-2-1.4-3.4-.3-1.4-.4-3.2-.4-5.4s.2-4,.5-5.4c.3-1.4.8-2.6,1.5-3.4s1.7-1.4,2.9-1.8c1.2-.4,2.8-.5,4.7-.5s1.5,0,2.3.1,1.6.2,2.4.3c.7.1,1.3.3,1.7.4l-.7,4.7c-.6-.1-1.2-.2-1.9-.3-.7,0-1.3-.2-2-.2-.6,0-1.2,0-1.7,0-1.2,0-2.1.2-2.6.5-.5.3-.7,1-.7,1.9v10h10.1l.5,3.4c-1.1.5-2.4.9-3.7,1.1-1.3.2-2.9.3-4.7.3ZM466.6,669.2v-7h-2.1v-4.4h7.7v11.5h-5.6Z" fill="#ec1c24"/>
      <path d="M475.6,670.2v-21.2h5.9l5.5,8.8c.3.5.5,1,.7,1.3.1.3.2.7.2,1h.2v-11.1h6v21.2h-5.9l-5.5-8.8c-.3-.5-.5-1-.7-1.3-.1-.3-.2-.7-.2-1h-.2v11.1h-6Z" fill="#ec1c24"/>
      <path d="M504.2,661.8v3.5h8.3v4.9h-14.2v-21.2h14.3l-.7,4.9h-7.6v3.5h7v4.4h-7Z" fill="#ec1c24"/>
      <path d="M515.8,649h9c1.9,0,3.5.2,4.7.5,1.2.3,2.2.9,2.9,1.7.7.8,1.2,1.9,1.5,3.2.3,1.4.4,3.1.4,5.2s-.1,3.8-.4,5.2c-.3,1.4-.8,2.5-1.5,3.3-.7.8-1.7,1.3-2.9,1.7-1.2.3-2.8.5-4.7.5h-9v-21.2ZM521.8,653.7v11.8h3.6c1,0,1.7-.2,2.1-.5s.6-.9.6-1.7v-7.4c0-.8-.2-1.4-.6-1.7s-1.1-.5-2.1-.5h-3.6Z" fill="#ec1c24"/>
      <path d="M554.1,653.9v16.3h-6v-16.3h-4.9v-4.9h15.9v4.9h-4.9Z" fill="#ec1c24"/>
      <path d="M560.6,659.6c0-2.1.2-3.9.5-5.4.3-1.4.8-2.6,1.6-3.4.7-.8,1.8-1.4,3-1.8,1.3-.4,2.8-.5,4.7-.5s3.4.2,4.7.5c1.3.4,2.3,1,3,1.8.7.8,1.3,2,1.6,3.4.3,1.4.5,3.2.5,5.4s-.2,3.9-.5,5.4c-.3,1.4-.8,2.6-1.6,3.4-.7.8-1.7,1.4-3,1.8-1.3.4-2.9.5-4.7.5s-3.4-.2-4.7-.5c-1.3-.4-2.3-1-3-1.8-.7-.8-1.3-2-1.6-3.4-.3-1.4-.5-3.2-.5-5.4ZM567,665.6h4c1,0,1.8-.1,2.2-.4.4-.3.6-.8.6-1.5v-10.1h-4.1c-1,0-1.7.1-2.1.4-.4.3-.6.8-.6,1.5v10.1Z" fill="#ec1c24"/>
      <path d="M596.6,663.7v6.5h-6v-21.2h9.5c1.8,0,3.3.3,4.4.8,1.1.5,1.9,1.3,2.4,2.5.5,1.1.8,2.6.8,4.4s-.6,4.2-1.7,5.4c-1.1,1.1-2.9,1.7-5.4,1.7h-4ZM596.6,659.4h3.3c.6,0,1-.1,1.2-.3s.4-.6.4-1.1v-2.6c0-.5-.1-.9-.4-1.1s-.6-.3-1.2-.3h-3.3v5.4ZM603.7,659.8l5,10.4h-6.5l-3.6-7.7,5.1-2.8Z" fill="#ec1c24"/>
      <path d="M611.5,649h6v21.2h-6v-21.2Z" fill="#ec1c24"/>
      <path d="M621.3,664.7c1.1.3,2.2.6,3.4.7s2.3.3,3.4.3,1.1,0,1.6,0c.5,0,.9,0,1.5-.2v-2.9l-3.1-.3c-1.4-.1-2.5-.3-3.4-.6-.9-.3-1.7-.7-2.3-1.2s-1-1.1-1.2-1.9c-.2-.8-.4-1.7-.4-2.8,0-1.8.2-3.2.7-4.3.5-1.1,1.3-1.8,2.5-2.3,1.2-.5,2.7-.7,4.7-.7s2.6,0,3.9.2c1.3.2,2.6.4,3.8.7l-.7,4.8c-1.1-.2-2.1-.4-3-.5s-1.8-.2-2.7-.2-1.2,0-1.6,0-.8,0-1.3.1v2.9l2.8.2c1.8.2,3.3.5,4.4,1,1.1.5,1.9,1.2,2.4,2.2.5.9.8,2.1.8,3.6s-.3,3-.9,4c-.6,1-1.5,1.8-2.8,2.3-1.3.5-2.9.7-5,.7s-3,0-4.4-.3c-1.4-.2-2.7-.5-4-.8l.8-4.9Z" fill="#ec1c24"/>
      <path d="M646.5,661.8v3.5h8.3v4.9h-14.2v-21.2h14.3l-.7,4.9h-7.6v3.5h7v4.4h-7Z" fill="#ec1c24"/>
      <path d="M657.3,667.2c0-1.2.2-2,.6-2.5s1.3-.8,2.7-.8,2.2.3,2.7.8.6,1.4.6,2.5-.2,2-.6,2.5c-.4.5-1.3.7-2.7.7s-2.2-.2-2.7-.7c-.4-.5-.6-1.3-.6-2.5Z" fill="#ec1c24"/>
    </g>
  </g>
</svg>