<svg xmlns="http://www.w3.org/2000/svg" version="1.1" viewBox="0 0 1000 1000">
  <g>
    <g id="Layer_1">
      <path d="M342,246.8c-4.1-4.1-10.7-4.1-14.8,0,0,0,0,0,0,0l-80.2,80c-4.1,4.1-4.1,10.7,0,14.8,0,0,0,0,0,0l151.9,152.1c4.1,4.1,10.7,4.1,14.8,0s4.1-10.7,0-14.8h0l-144.6-144.7,65.4-65.3,26.5,26.6-26,25.8c-4,4.2-3.7,10.8.5,14.8,4,3.8,10.2,3.8,14.2,0l26.1-25.9,25.7,25.8-48.3,48.3c-4.2,3.9-4.5,10.5-.6,14.8,3.9,4.2,10.5,4.5,14.8.6.2-.2.4-.4.5-.5l48.3-48.3,26.1,26.2-26.9,26.9c-4.2,3.9-4.5,10.5-.5,14.8,3.9,4.2,10.5,4.5,14.8.5.2-.2.4-.4.5-.5l26.9-26.9,21.4,21.5c4.2,3.9,10.8,3.7,14.8-.5,3.7-4,3.8-10.2,0-14.2l-69.2-69.5-.8-.8-39-39.1c-.6-.8-1.3-1.5-2.1-2.1l-40.2-40.4Z"/>
      <path d="M712.7,261.6c5.3,2.2,10.1,5.4,14.1,9.4,17.5,16.7,18.1,44.4,1.4,61.8-.2.2-.4.4-.6.6l-390.5,392.6c-1.5,1.5-3.3,2.5-5.4,2.9l-59.3,11.8c-5.7,1.1-11.2-2.6-12.3-8.2-.3-1.3-.3-2.7,0-4.1l11.8-59.3c.4-2,1.4-3.9,2.8-5.3l390-392.7c12.6-12.6,31.5-16.4,47.9-9.6M687.1,280.9c8.6-3.6,18.5-1.6,25.1,5l7.4-7.4-7.2,7.6c9.2,8.7,9.6,23.1.9,32.3-.1.1-.3.3-.4.4l-13.4,13.4-33.1-33.1,13.2-13.3c2.1-2.1,4.7-3.8,7.5-5M651.7,314l-359.8,362.4-8.2,40.9,40.9-8.1,360.2-362.1-33-33Z" fill-rule="evenodd"/>
      <path d="M586.5,506.1c4.1-4.1,10.7-4.1,14.8,0,0,0,0,0,0,0l25.8,25.8c2.7,1.1,4.9,3.2,6,6l34.9,34.9c2.5,1.1,4.6,3.1,5.6,5.6l35,35c2.5,1.1,4.6,3.1,5.7,5.7l38.5,38.5c4.1,4.1,4.1,10.7,0,14.8h0s-80.2,80.2-80.2,80.2c-4.1,4.1-10.7,4.1-14.8,0h0s-151.4-151.8-151.4-151.8c-4.1-4.1-4.1-10.7,0-14.8,4.1-4.1,10.7-4.1,14.8,0l144,144.4,65.4-65.4-26.6-26.6-25.6,25.6c-3.9,4.2-10.5,4.5-14.8.6-4.2-3.9-4.5-10.5-.6-14.8.2-.2.4-.4.5-.5l25.6-25.6-25.9-25.9-47.8,47.8c-4.2,3.9-10.8,3.7-14.8-.6-3.7-4-3.7-10.2,0-14.2l47.8-47.8-26-26-25.7,25.6c-4.2,3.9-10.9,3.7-14.8-.6-3.7-4-3.7-10.2,0-14.2l25.7-25.6-21.4-21.4c-4.1-4.1-4.1-10.7,0-14.8,0,0,0,0,0,0"/>
    </g>
  </g>
</svg>
